<svg xmlns="http://www.w3.org/2000/svg" version="1.1" xmlns:xlink="http://www.w3.org/1999/xlink" xmlns:svgjs="http://svgjs.dev/svgjs" viewBox="0 0 1422 800" opacity="0.79"><defs><linearGradient x1="50%" y1="0%" x2="50%" y2="100%" id="oooscillate-grad"><stop stop-color="hsl(185, 53%, 55%)" stop-opacity="1" offset="0%"></stop><stop stop-color="hsl(0, 73%, 55%)" stop-opacity="1" offset="100%"></stop></linearGradient></defs><g stroke-width="1" stroke="url(#oooscillate-grad)" fill="none" stroke-linecap="round"><path d="M 0 999 Q 355.5 -100 711 400 Q 1066.5 900 1422 999" opacity="1.00"></path><path d="M 0 990 Q 355.5 -100 711 400 Q 1066.5 900 1422 990" opacity="0.99"></path><path d="M 0 981 Q 355.5 -100 711 400 Q 1066.5 900 1422 981" opacity="0.98"></path><path d="M 0 972 Q 355.5 -100 711 400 Q 1066.5 900 1422 972" opacity="0.97"></path><path d="M 0 963 Q 355.5 -100 711 400 Q 1066.5 900 1422 963" opacity="0.97"></path><path d="M 0 954 Q 355.5 -100 711 400 Q 1066.5 900 1422 954" opacity="0.96"></path><path d="M 0 945 Q 355.5 -100 711 400 Q 1066.5 900 1422 945" opacity="0.95"></path><path d="M 0 936 Q 355.5 -100 711 400 Q 1066.5 900 1422 936" opacity="0.94"></path><path d="M 0 927 Q 355.5 -100 711 400 Q 1066.5 900 1422 927" opacity="0.93"></path><path d="M 0 918 Q 355.5 -100 711 400 Q 1066.5 900 1422 918" opacity="0.92"></path><path d="M 0 909 Q 355.5 -100 711 400 Q 1066.5 900 1422 909" opacity="0.91"></path><path d="M 0 900 Q 355.5 -100 711 400 Q 1066.5 900 1422 900" opacity="0.91"></path><path d="M 0 891 Q 355.5 -100 711 400 Q 1066.5 900 1422 891" opacity="0.90"></path><path d="M 0 882 Q 355.5 -100 711 400 Q 1066.5 900 1422 882" opacity="0.89"></path><path d="M 0 873 Q 355.5 -100 711 400 Q 1066.5 900 1422 873" opacity="0.88"></path><path d="M 0 864 Q 355.5 -100 711 400 Q 1066.5 900 1422 864" opacity="0.87"></path><path d="M 0 855 Q 355.5 -100 711 400 Q 1066.5 900 1422 855" opacity="0.86"></path><path d="M 0 846 Q 355.5 -100 711 400 Q 1066.5 900 1422 846" opacity="0.85"></path><path d="M 0 837 Q 355.5 -100 711 400 Q 1066.5 900 1422 837" opacity="0.84"></path><path d="M 0 828 Q 355.5 -100 711 400 Q 1066.5 900 1422 828" opacity="0.84"></path><path d="M 0 819 Q 355.5 -100 711 400 Q 1066.5 900 1422 819" opacity="0.83"></path><path d="M 0 810 Q 355.5 -100 711 400 Q 1066.5 900 1422 810" opacity="0.82"></path><path d="M 0 801 Q 355.5 -100 711 400 Q 1066.5 900 1422 801" opacity="0.81"></path><path d="M 0 792 Q 355.5 -100 711 400 Q 1066.5 900 1422 792" opacity="0.80"></path><path d="M 0 783 Q 355.5 -100 711 400 Q 1066.5 900 1422 783" opacity="0.79"></path><path d="M 0 774 Q 355.5 -100 711 400 Q 1066.5 900 1422 774" opacity="0.78"></path><path d="M 0 765 Q 355.5 -100 711 400 Q 1066.5 900 1422 765" opacity="0.78"></path><path d="M 0 756 Q 355.5 -100 711 400 Q 1066.5 900 1422 756" opacity="0.77"></path><path d="M 0 747 Q 355.5 -100 711 400 Q 1066.5 900 1422 747" opacity="0.76"></path><path d="M 0 738 Q 355.5 -100 711 400 Q 1066.5 900 1422 738" opacity="0.75"></path><path d="M 0 729 Q 355.5 -100 711 400 Q 1066.5 900 1422 729" opacity="0.74"></path><path d="M 0 720 Q 355.5 -100 711 400 Q 1066.5 900 1422 720" opacity="0.73"></path><path d="M 0 711 Q 355.5 -100 711 400 Q 1066.5 900 1422 711" opacity="0.72"></path><path d="M 0 702 Q 355.5 -100 711 400 Q 1066.5 900 1422 702" opacity="0.72"></path><path d="M 0 693 Q 355.5 -100 711 400 Q 1066.5 900 1422 693" opacity="0.71"></path><path d="M 0 684 Q 355.5 -100 711 400 Q 1066.5 900 1422 684" opacity="0.70"></path><path d="M 0 675 Q 355.5 -100 711 400 Q 1066.5 900 1422 675" opacity="0.69"></path><path d="M 0 666 Q 355.5 -100 711 400 Q 1066.5 900 1422 666" opacity="0.68"></path><path d="M 0 657 Q 355.5 -100 711 400 Q 1066.5 900 1422 657" opacity="0.67"></path><path d="M 0 648 Q 355.5 -100 711 400 Q 1066.5 900 1422 648" opacity="0.66"></path><path d="M 0 639 Q 355.5 -100 711 400 Q 1066.5 900 1422 639" opacity="0.65"></path><path d="M 0 630 Q 355.5 -100 711 400 Q 1066.5 900 1422 630" opacity="0.65"></path><path d="M 0 621 Q 355.5 -100 711 400 Q 1066.5 900 1422 621" opacity="0.64"></path><path d="M 0 612 Q 355.5 -100 711 400 Q 1066.5 900 1422 612" opacity="0.63"></path><path d="M 0 603 Q 355.5 -100 711 400 Q 1066.5 900 1422 603" opacity="0.62"></path><path d="M 0 594 Q 355.5 -100 711 400 Q 1066.5 900 1422 594" opacity="0.61"></path><path d="M 0 585 Q 355.5 -100 711 400 Q 1066.5 900 1422 585" opacity="0.60"></path><path d="M 0 576 Q 355.5 -100 711 400 Q 1066.5 900 1422 576" opacity="0.59"></path><path d="M 0 567 Q 355.5 -100 711 400 Q 1066.5 900 1422 567" opacity="0.59"></path><path d="M 0 558 Q 355.5 -100 711 400 Q 1066.5 900 1422 558" opacity="0.58"></path><path d="M 0 549 Q 355.5 -100 711 400 Q 1066.5 900 1422 549" opacity="0.57"></path><path d="M 0 540 Q 355.5 -100 711 400 Q 1066.5 900 1422 540" opacity="0.56"></path><path d="M 0 531 Q 355.5 -100 711 400 Q 1066.5 900 1422 531" opacity="0.55"></path><path d="M 0 522 Q 355.5 -100 711 400 Q 1066.5 900 1422 522" opacity="0.54"></path><path d="M 0 513 Q 355.5 -100 711 400 Q 1066.5 900 1422 513" opacity="0.53"></path><path d="M 0 504 Q 355.5 -100 711 400 Q 1066.5 900 1422 504" opacity="0.53"></path><path d="M 0 495 Q 355.5 -100 711 400 Q 1066.5 900 1422 495" opacity="0.52"></path><path d="M 0 486 Q 355.5 -100 711 400 Q 1066.5 900 1422 486" opacity="0.51"></path><path d="M 0 477 Q 355.5 -100 711 400 Q 1066.5 900 1422 477" opacity="0.50"></path><path d="M 0 468 Q 355.5 -100 711 400 Q 1066.5 900 1422 468" opacity="0.49"></path><path d="M 0 459 Q 355.5 -100 711 400 Q 1066.5 900 1422 459" opacity="0.48"></path><path d="M 0 450 Q 355.5 -100 711 400 Q 1066.5 900 1422 450" opacity="0.47"></path><path d="M 0 441 Q 355.5 -100 711 400 Q 1066.5 900 1422 441" opacity="0.46"></path><path d="M 0 432 Q 355.5 -100 711 400 Q 1066.5 900 1422 432" opacity="0.46"></path><path d="M 0 423 Q 355.5 -100 711 400 Q 1066.5 900 1422 423" opacity="0.45"></path><path d="M 0 414 Q 355.5 -100 711 400 Q 1066.5 900 1422 414" opacity="0.44"></path><path d="M 0 405 Q 355.5 -100 711 400 Q 1066.5 900 1422 405" opacity="0.43"></path><path d="M 0 396 Q 355.5 -100 711 400 Q 1066.5 900 1422 396" opacity="0.42"></path><path d="M 0 387 Q 355.5 -100 711 400 Q 1066.5 900 1422 387" opacity="0.41"></path><path d="M 0 378 Q 355.5 -100 711 400 Q 1066.5 900 1422 378" opacity="0.40"></path><path d="M 0 369 Q 355.5 -100 711 400 Q 1066.5 900 1422 369" opacity="0.40"></path><path d="M 0 360 Q 355.5 -100 711 400 Q 1066.5 900 1422 360" opacity="0.39"></path><path d="M 0 351 Q 355.5 -100 711 400 Q 1066.5 900 1422 351" opacity="0.38"></path><path d="M 0 342 Q 355.5 -100 711 400 Q 1066.5 900 1422 342" opacity="0.37"></path><path d="M 0 333 Q 355.5 -100 711 400 Q 1066.5 900 1422 333" opacity="0.36"></path><path d="M 0 324 Q 355.5 -100 711 400 Q 1066.5 900 1422 324" opacity="0.35"></path><path d="M 0 315 Q 355.5 -100 711 400 Q 1066.5 900 1422 315" opacity="0.34"></path><path d="M 0 306 Q 355.5 -100 711 400 Q 1066.5 900 1422 306" opacity="0.34"></path><path d="M 0 297 Q 355.5 -100 711 400 Q 1066.5 900 1422 297" opacity="0.33"></path><path d="M 0 288 Q 355.5 -100 711 400 Q 1066.5 900 1422 288" opacity="0.32"></path><path d="M 0 279 Q 355.5 -100 711 400 Q 1066.5 900 1422 279" opacity="0.31"></path><path d="M 0 270 Q 355.5 -100 711 400 Q 1066.5 900 1422 270" opacity="0.30"></path><path d="M 0 261 Q 355.5 -100 711 400 Q 1066.5 900 1422 261" opacity="0.29"></path><path d="M 0 252 Q 355.5 -100 711 400 Q 1066.5 900 1422 252" opacity="0.28"></path><path d="M 0 243 Q 355.5 -100 711 400 Q 1066.5 900 1422 243" opacity="0.27"></path><path d="M 0 234 Q 355.5 -100 711 400 Q 1066.5 900 1422 234" opacity="0.27"></path><path d="M 0 225 Q 355.5 -100 711 400 Q 1066.5 900 1422 225" opacity="0.26"></path><path d="M 0 216 Q 355.5 -100 711 400 Q 1066.5 900 1422 216" opacity="0.25"></path><path d="M 0 207 Q 355.5 -100 711 400 Q 1066.5 900 1422 207" opacity="0.24"></path><path d="M 0 198 Q 355.5 -100 711 400 Q 1066.5 900 1422 198" opacity="0.23"></path><path d="M 0 189 Q 355.5 -100 711 400 Q 1066.5 900 1422 189" opacity="0.22"></path><path d="M 0 180 Q 355.5 -100 711 400 Q 1066.5 900 1422 180" opacity="0.21"></path><path d="M 0 171 Q 355.5 -100 711 400 Q 1066.5 900 1422 171" opacity="0.21"></path><path d="M 0 162 Q 355.5 -100 711 400 Q 1066.5 900 1422 162" opacity="0.20"></path><path d="M 0 153 Q 355.5 -100 711 400 Q 1066.5 900 1422 153" opacity="0.19"></path><path d="M 0 144 Q 355.5 -100 711 400 Q 1066.5 900 1422 144" opacity="0.18"></path><path d="M 0 135 Q 355.5 -100 711 400 Q 1066.5 900 1422 135" opacity="0.17"></path><path d="M 0 126 Q 355.5 -100 711 400 Q 1066.5 900 1422 126" opacity="0.16"></path><path d="M 0 117 Q 355.5 -100 711 400 Q 1066.5 900 1422 117" opacity="0.15"></path><path d="M 0 108 Q 355.5 -100 711 400 Q 1066.5 900 1422 108" opacity="0.15"></path><path d="M 0 99 Q 355.5 -100 711 400 Q 1066.5 900 1422 99" opacity="0.14"></path><path d="M 0 90 Q 355.5 -100 711 400 Q 1066.5 900 1422 90" opacity="0.13"></path><path d="M 0 81 Q 355.5 -100 711 400 Q 1066.5 900 1422 81" opacity="0.12"></path><path d="M 0 72 Q 355.5 -100 711 400 Q 1066.5 900 1422 72" opacity="0.11"></path><path d="M 0 63 Q 355.5 -100 711 400 Q 1066.5 900 1422 63" opacity="0.10"></path><path d="M 0 54 Q 355.5 -100 711 400 Q 1066.5 900 1422 54" opacity="0.09"></path><path d="M 0 45 Q 355.5 -100 711 400 Q 1066.5 900 1422 45" opacity="0.08"></path><path d="M 0 36 Q 355.5 -100 711 400 Q 1066.5 900 1422 36" opacity="0.08"></path><path d="M 0 27 Q 355.5 -100 711 400 Q 1066.5 900 1422 27" opacity="0.07"></path><path d="M 0 18 Q 355.5 -100 711 400 Q 1066.5 900 1422 18" opacity="0.06"></path></g></svg>