<svg xmlns="http://www.w3.org/2000/svg" version="1.1" xmlns:xlink="http://www.w3.org/1999/xlink" xmlns:svgjs="http://svgjs.dev/svgjs" viewBox="0 0 1422 800"><defs><linearGradient x1="50%" y1="0%" x2="50%" y2="100%" id="oooscillate-grad"><stop stop-color="hsl(1.4, 100%, 67%)" stop-opacity="1" offset="0%"></stop><stop stop-color="hsl(167, 52%, 78%)" stop-opacity="1" offset="100%"></stop></linearGradient></defs><g stroke-width="3.5" stroke="url(#oooscillate-grad)" fill="none" stroke-linecap="round"><path d="M 0 891 Q 355.5 60 711 400 Q 1066.5 740 1422 891" opacity="0.64"></path><path d="M 0 864 Q 355.5 60 711 400 Q 1066.5 740 1422 864" opacity="0.65"></path><path d="M 0 837 Q 355.5 60 711 400 Q 1066.5 740 1422 837" opacity="0.41"></path><path d="M 0 810 Q 355.5 60 711 400 Q 1066.5 740 1422 810" opacity="0.63"></path><path d="M 0 783 Q 355.5 60 711 400 Q 1066.5 740 1422 783" opacity="0.73"></path><path d="M 0 756 Q 355.5 60 711 400 Q 1066.5 740 1422 756" opacity="0.23"></path><path d="M 0 729 Q 355.5 60 711 400 Q 1066.5 740 1422 729" opacity="0.65"></path><path d="M 0 702 Q 355.5 60 711 400 Q 1066.5 740 1422 702" opacity="0.19"></path><path d="M 0 675 Q 355.5 60 711 400 Q 1066.5 740 1422 675" opacity="0.09"></path><path d="M 0 648 Q 355.5 60 711 400 Q 1066.5 740 1422 648" opacity="0.46"></path><path d="M 0 621 Q 355.5 60 711 400 Q 1066.5 740 1422 621" opacity="0.95"></path><path d="M 0 594 Q 355.5 60 711 400 Q 1066.5 740 1422 594" opacity="0.95"></path><path d="M 0 567 Q 355.5 60 711 400 Q 1066.5 740 1422 567" opacity="0.30"></path><path d="M 0 540 Q 355.5 60 711 400 Q 1066.5 740 1422 540" opacity="0.13"></path><path d="M 0 513 Q 355.5 60 711 400 Q 1066.5 740 1422 513" opacity="0.84"></path><path d="M 0 486 Q 355.5 60 711 400 Q 1066.5 740 1422 486" opacity="0.34"></path><path d="M 0 459 Q 355.5 60 711 400 Q 1066.5 740 1422 459" opacity="0.21"></path><path d="M 0 432 Q 355.5 60 711 400 Q 1066.5 740 1422 432" opacity="0.22"></path><path d="M 0 405 Q 355.5 60 711 400 Q 1066.5 740 1422 405" opacity="0.70"></path><path d="M 0 378 Q 355.5 60 711 400 Q 1066.5 740 1422 378" opacity="0.33"></path><path d="M 0 351 Q 355.5 60 711 400 Q 1066.5 740 1422 351" opacity="0.44"></path><path d="M 0 324 Q 355.5 60 711 400 Q 1066.5 740 1422 324" opacity="0.44"></path><path d="M 0 297 Q 355.5 60 711 400 Q 1066.5 740 1422 297" opacity="0.44"></path><path d="M 0 270 Q 355.5 60 711 400 Q 1066.5 740 1422 270" opacity="0.17"></path><path d="M 0 243 Q 355.5 60 711 400 Q 1066.5 740 1422 243" opacity="0.14"></path><path d="M 0 216 Q 355.5 60 711 400 Q 1066.5 740 1422 216" opacity="0.67"></path><path d="M 0 189 Q 355.5 60 711 400 Q 1066.5 740 1422 189" opacity="0.78"></path><path d="M 0 162 Q 355.5 60 711 400 Q 1066.5 740 1422 162" opacity="0.44"></path><path d="M 0 135 Q 355.5 60 711 400 Q 1066.5 740 1422 135" opacity="0.70"></path><path d="M 0 108 Q 355.5 60 711 400 Q 1066.5 740 1422 108" opacity="0.82"></path><path d="M 0 81 Q 355.5 60 711 400 Q 1066.5 740 1422 81" opacity="0.99"></path><path d="M 0 54 Q 355.5 60 711 400 Q 1066.5 740 1422 54" opacity="0.46"></path></g></svg>