<svg xmlns="http://www.w3.org/2000/svg" version="1.1" xmlns:xlink="http://www.w3.org/1999/xlink" xmlns:svgjs="http://svgjs.dev/svgjs" viewBox="0 0 800 800"><defs><linearGradient x1="50%" y1="0%" x2="50%" y2="100%" id="ffflurry-grad" gradientTransform="rotate(270)"><stop stop-color="hsl(0, 0%, 100%)" stop-opacity="1" offset="0%"></stop><stop stop-color="hsl(185, 53%, 55%)" stop-opacity="1" offset="45%"></stop><stop stop-color="hsl(0, 73%, 55%)" stop-opacity="1" offset="100%"></stop></linearGradient></defs><rect width="100%" height="100%" fill="hsl(0, 0%, 100%)"></rect><g fill="url(#ffflurry-grad)"><rect width="76" height="2" x="432" y="50" rx="1" transform="rotate(49, 470, 51)" opacity="0.35"></rect><rect width="129" height="2" x="667.5" y="267" rx="1" transform="rotate(49, 732, 268)" opacity="0.62"></rect><rect width="160" height="2" x="-31" y="53" rx="1" transform="rotate(49, 49, 54)" opacity="0.86"></rect><rect width="164" height="2" x="485" y="91" rx="1" transform="rotate(49, 567, 92)" opacity="0.92"></rect><rect width="258" height="2" x="350" y="732" rx="1" transform="rotate(49, 479, 733)" opacity="0.24"></rect><rect width="106" height="2" x="132" y="465" rx="1" transform="rotate(49, 185, 466)" opacity="0.14"></rect><rect width="81" height="2" x="65.5" y="215" rx="1" transform="rotate(49, 106, 216)" opacity="0.24"></rect><rect width="149" height="2" x="307.5" y="639" rx="1" transform="rotate(49, 382, 640)" opacity="0.61"></rect><rect width="95" height="2" x="370.5" y="396" rx="1" transform="rotate(49, 418, 397)" opacity="0.50"></rect><rect width="119" height="2" x="303.5" y="51" rx="1" transform="rotate(49, 363, 52)" opacity="0.80"></rect><rect width="87" height="2" x="-7.5" y="174" rx="1" transform="rotate(49, 36, 175)" opacity="0.97"></rect><rect width="112" height="2" x="562" y="463" rx="1" transform="rotate(49, 618, 464)" opacity="0.67"></rect><rect width="90" height="2" x="288" y="499" rx="1" transform="rotate(49, 333, 500)" opacity="0.38"></rect><rect width="63" height="2" x="200.5" y="601" rx="1" transform="rotate(49, 232, 602)" opacity="0.69"></rect><rect width="243" height="2" x="587.5" y="592" rx="1" transform="rotate(49, 709, 593)" opacity="0.47"></rect><rect width="51" height="2" x="277.5" y="762" rx="1" transform="rotate(49, 303, 763)" opacity="0.56"></rect><rect width="143" height="2" x="559.5" y="36" rx="1" transform="rotate(49, 631, 37)" opacity="0.61"></rect><rect width="139" height="2" x="80.5" y="60" rx="1" transform="rotate(49, 150, 61)" opacity="0.27"></rect><rect width="127" height="2" x="230.5" y="312" rx="1" transform="rotate(49, 294, 313)" opacity="0.97"></rect><rect width="104" height="2" x="199" y="697" rx="1" transform="rotate(49, 251, 698)" opacity="0.58"></rect><rect width="63" height="2" x="225.5" y="65" rx="1" transform="rotate(49, 257, 66)" opacity="0.48"></rect><rect width="294" height="2" x="-66" y="365" rx="1" transform="rotate(49, 81, 366)" opacity="0.88"></rect><rect width="85" height="2" x="604.5" y="200" rx="1" transform="rotate(49, 647, 201)" opacity="0.13"></rect><rect width="147" height="2" x="-27.5" y="738" rx="1" transform="rotate(49, 46, 739)" opacity="0.22"></rect><rect width="195" height="2" x="444.5" y="332" rx="1" transform="rotate(49, 542, 333)" opacity="0.74"></rect><rect width="148" height="2" x="434" y="557" rx="1" transform="rotate(49, 508, 558)" opacity="0.20"></rect><rect width="123" height="2" x="384.5" y="187" rx="1" transform="rotate(49, 446, 188)" opacity="0.19"></rect><rect width="52" height="2" x="121" y="727" rx="1" transform="rotate(49, 147, 728)" opacity="0.35"></rect><rect width="234" height="2" x="-50" y="580" rx="1" transform="rotate(49, 67, 581)" opacity="0.76"></rect><rect width="118" height="2" x="147" y="200" rx="1" transform="rotate(49, 206, 201)" opacity="0.53"></rect><rect width="81" height="2" x="696.5" y="414" rx="1" transform="rotate(49, 737, 415)" opacity="0.71"></rect><rect width="188" height="2" x="451" y="204" rx="1" transform="rotate(49, 545, 205)" opacity="0.36"></rect><rect width="242" height="2" x="554" y="728" rx="1" transform="rotate(49, 675, 729)" opacity="0.52"></rect><rect width="90" height="2" x="694" y="87" rx="1" transform="rotate(49, 739, 88)" opacity="0.31"></rect><rect width="222" height="2" x="224" y="174" rx="1" transform="rotate(49, 335, 175)" opacity="0.67"></rect></g></svg>